<svg width="699" height="450" viewBox="0 0 699 450" fill="none" xmlns="http://www.w3.org/2000/svg">
<rect width="699" height="450" fill="black" fill-opacity="0"/>
<rect width="307" height="329" fill="black" fill-opacity="0" transform="translate(196)"/>
<path d="M321.471 173.383H349.5H377.529L349.5 106.103L321.471 173.383Z" fill="white"/>
<path d="M349.5 0L196 54.614L219.412 257.113L349.5 329L479.588 257.113L503 54.614L349.5 0ZM445.293 251.027H409.515L390.224 202.993H349.5H308.776L289.485 251.027H253.707L349.5 36.3545L445.293 251.027Z" fill="white"/>
<path d="M229.081 394.6H210.881L207.409 403H198.113L215.585 363.8H224.545L242.073 403H232.553L229.081 394.6ZM226.225 387.712L220.009 372.704L213.793 387.712H226.225ZM263.836 372.424C267.57 372.424 270.575 373.544 272.852 375.784C275.167 378.024 276.324 381.347 276.324 385.752V403H267.588V387.096C267.588 384.707 267.066 382.933 266.02 381.776C264.975 380.581 263.463 379.984 261.484 379.984C259.282 379.984 257.527 380.675 256.22 382.056C254.914 383.4 254.26 385.416 254.26 388.104V403H245.524V372.872H253.868V376.4C255.026 375.131 256.463 374.16 258.18 373.488C259.898 372.779 261.783 372.424 263.836 372.424ZM315.651 372.872V397.96C315.651 403.485 314.214 407.592 311.339 410.28C308.464 412.968 304.264 414.312 298.739 414.312C295.827 414.312 293.064 413.957 290.451 413.248C287.838 412.539 285.672 411.512 283.955 410.168L287.427 403.896C288.696 404.941 290.302 405.763 292.243 406.36C294.184 406.995 296.126 407.312 298.067 407.312C301.091 407.312 303.312 406.621 304.731 405.24C306.187 403.896 306.915 401.843 306.915 399.08V397.792C304.638 400.293 301.464 401.544 297.395 401.544C294.632 401.544 292.094 400.947 289.779 399.752C287.502 398.52 285.691 396.803 284.347 394.6C283.003 392.397 282.331 389.859 282.331 386.984C282.331 384.109 283.003 381.571 284.347 379.368C285.691 377.165 287.502 375.467 289.779 374.272C292.094 373.04 294.632 372.424 297.395 372.424C301.763 372.424 305.086 373.861 307.363 376.736V372.872H315.651ZM299.131 394.376C301.446 394.376 303.331 393.704 304.787 392.36C306.28 390.979 307.027 389.187 307.027 386.984C307.027 384.781 306.28 383.008 304.787 381.664C303.331 380.283 301.446 379.592 299.131 379.592C296.816 379.592 294.912 380.283 293.419 381.664C291.926 383.008 291.179 384.781 291.179 386.984C291.179 389.187 291.926 390.979 293.419 392.36C294.912 393.704 296.816 394.376 299.131 394.376ZM354.134 372.872V403H345.846V399.416C344.689 400.723 343.307 401.731 341.702 402.44C340.097 403.112 338.361 403.448 336.494 403.448C332.537 403.448 329.401 402.309 327.086 400.032C324.771 397.755 323.614 394.376 323.614 389.896V372.872H332.35V388.608C332.35 393.461 334.385 395.888 338.454 395.888C340.545 395.888 342.225 395.216 343.494 393.872C344.763 392.491 345.398 390.456 345.398 387.768V372.872H354.134ZM362.227 361.448H370.963V403H362.227V361.448ZM391.223 372.424C395.89 372.424 399.474 373.544 401.975 375.784C404.476 377.987 405.727 381.328 405.727 385.808V403H397.551V399.248C395.908 402.048 392.847 403.448 388.367 403.448C386.052 403.448 384.036 403.056 382.319 402.272C380.639 401.488 379.351 400.405 378.455 399.024C377.559 397.643 377.111 396.075 377.111 394.32C377.111 391.52 378.156 389.317 380.247 387.712C382.375 386.107 385.642 385.304 390.047 385.304H396.991C396.991 383.4 396.412 381.944 395.255 380.936C394.098 379.891 392.362 379.368 390.047 379.368C388.442 379.368 386.855 379.629 385.287 380.152C383.756 380.637 382.45 381.309 381.367 382.168L378.231 376.064C379.874 374.907 381.834 374.011 384.111 373.376C386.426 372.741 388.796 372.424 391.223 372.424ZM390.551 397.568C392.044 397.568 393.37 397.232 394.527 396.56C395.684 395.851 396.506 394.824 396.991 393.48V390.4H390.999C387.415 390.4 385.623 391.576 385.623 393.928C385.623 395.048 386.052 395.944 386.911 396.616C387.807 397.251 389.02 397.568 390.551 397.568ZM421.978 376.848C423.023 375.392 424.423 374.291 426.178 373.544C427.97 372.797 430.023 372.424 432.338 372.424V380.488C431.367 380.413 430.714 380.376 430.378 380.376C427.876 380.376 425.916 381.085 424.498 382.504C423.079 383.885 422.37 385.976 422.37 388.776V403H413.634V372.872H421.978V376.848ZM465.519 395.608V403H435.895V397.12L451.015 382.84C452.62 381.309 453.703 380.003 454.263 378.92C454.823 377.8 455.103 376.699 455.103 375.616C455.103 374.048 454.562 372.853 453.479 372.032C452.434 371.173 450.884 370.744 448.831 370.744C447.114 370.744 445.564 371.08 444.183 371.752C442.802 372.387 441.644 373.357 440.711 374.664L434.103 370.408C435.634 368.131 437.743 366.357 440.431 365.088C443.119 363.781 446.199 363.128 449.671 363.128C452.583 363.128 455.122 363.613 457.287 364.584C459.49 365.517 461.188 366.861 462.383 368.616C463.615 370.333 464.231 372.368 464.231 374.72C464.231 376.848 463.783 378.845 462.887 380.712C461.991 382.579 460.255 384.707 457.679 387.096L448.663 395.608H465.519ZM496.987 386.816H487.243V396.336H480.019V386.816H470.331V379.984H480.019V370.464H487.243V379.984H496.987V386.816Z" fill="white"/>
</svg>
