<svg width="707" height="473" viewBox="0 0 707 473" fill="none" xmlns="http://www.w3.org/2000/svg">
<rect width="707" height="473" fill="black" fill-opacity="0"/>
<path fill-rule="evenodd" clip-rule="evenodd" d="M362.989 357.884L492.168 323.086L521.981 0H204L233.809 323.086L362.989 357.884ZM362.874 106.954L270.417 145.477L273.483 183.617L273.625 183.617L362.874 183.903L410.784 184.055L407.716 234.908L362.874 247.538V247.499L362.507 247.601L319.196 236.66L316.568 205.096H276.254L276.114 205.097L281.371 266.033L362.874 290.144V290.099L363.021 290.143L444.087 266.469L454.604 145.477H362.874H362.646L362.874 145.38L457.963 104.707L461.905 65.6912L262.09 65.6921L266.91 104.708H368.264L362.874 106.954Z" fill="white"/>
<path d="M304.365 426.079C300.37 426.079 296.749 425.221 293.501 423.503C290.29 421.749 287.752 419.341 285.885 416.279C284.056 413.181 283.141 409.69 283.141 405.807C283.141 401.925 284.056 398.453 285.885 395.391C287.752 392.293 290.29 389.885 293.501 388.167C296.749 386.413 300.389 385.535 304.421 385.535C307.818 385.535 310.88 386.133 313.605 387.327C316.368 388.522 318.682 390.239 320.549 392.479L314.725 397.855C312.074 394.794 308.789 393.263 304.869 393.263C302.442 393.263 300.277 393.805 298.373 394.887C296.469 395.933 294.976 397.407 293.893 399.311C292.848 401.215 292.325 403.381 292.325 405.807C292.325 408.234 292.848 410.399 293.893 412.303C294.976 414.207 296.469 415.701 298.373 416.783C300.277 417.829 302.442 418.351 304.869 418.351C308.789 418.351 312.074 416.802 314.725 413.703L320.549 419.079C318.682 421.357 316.368 423.093 313.605 424.287C310.842 425.482 307.762 426.079 304.365 426.079ZM339.227 426.079C336.129 426.079 333.123 425.669 330.211 424.847C327.337 423.989 325.022 422.887 323.267 421.543L326.347 414.711C328.027 415.943 330.025 416.933 332.339 417.679C334.654 418.426 336.969 418.799 339.283 418.799C341.859 418.799 343.763 418.426 344.995 417.679C346.227 416.895 346.843 415.869 346.843 414.599C346.843 413.666 346.47 412.901 345.723 412.303C345.014 411.669 344.081 411.165 342.923 410.791C341.803 410.418 340.273 410.007 338.331 409.559C335.345 408.85 332.899 408.141 330.995 407.431C329.091 406.722 327.449 405.583 326.067 404.015C324.723 402.447 324.051 400.357 324.051 397.743C324.051 395.466 324.667 393.413 325.899 391.583C327.131 389.717 328.979 388.242 331.443 387.159C333.945 386.077 336.987 385.535 340.571 385.535C343.073 385.535 345.518 385.834 347.907 386.431C350.297 387.029 352.387 387.887 354.179 389.007L351.379 395.895C347.758 393.842 344.137 392.815 340.515 392.815C337.977 392.815 336.091 393.226 334.859 394.047C333.665 394.869 333.067 395.951 333.067 397.295C333.067 398.639 333.758 399.647 335.139 400.319C336.558 400.954 338.705 401.589 341.579 402.223C344.566 402.933 347.011 403.642 348.915 404.351C350.819 405.061 352.443 406.181 353.787 407.711C355.169 409.242 355.859 411.314 355.859 413.927C355.859 416.167 355.225 418.221 353.955 420.087C352.723 421.917 350.857 423.373 348.355 424.455C345.854 425.538 342.811 426.079 339.227 426.079ZM374.938 426.079C371.839 426.079 368.834 425.669 365.922 424.847C363.047 423.989 360.733 422.887 358.978 421.543L362.058 414.711C363.738 415.943 365.735 416.933 368.05 417.679C370.365 418.426 372.679 418.799 374.994 418.799C377.57 418.799 379.474 418.426 380.706 417.679C381.938 416.895 382.554 415.869 382.554 414.599C382.554 413.666 382.181 412.901 381.434 412.303C380.725 411.669 379.791 411.165 378.634 410.791C377.514 410.418 375.983 410.007 374.042 409.559C371.055 408.85 368.61 408.141 366.706 407.431C364.802 406.722 363.159 405.583 361.778 404.015C360.434 402.447 359.762 400.357 359.762 397.743C359.762 395.466 360.378 393.413 361.61 391.583C362.842 389.717 364.69 388.242 367.154 387.159C369.655 386.077 372.698 385.535 376.282 385.535C378.783 385.535 381.229 385.834 383.618 386.431C386.007 387.029 388.098 387.887 389.89 389.007L387.09 395.895C383.469 393.842 379.847 392.815 376.226 392.815C373.687 392.815 371.802 393.226 370.57 394.047C369.375 394.869 368.778 395.951 368.778 397.295C368.778 398.639 369.469 399.647 370.85 400.319C372.269 400.954 374.415 401.589 377.29 402.223C380.277 402.933 382.722 403.642 384.626 404.351C386.53 405.061 388.154 406.181 389.498 407.711C390.879 409.242 391.57 411.314 391.57 413.927C391.57 416.167 390.935 418.221 389.666 420.087C388.434 421.917 386.567 423.373 384.066 424.455C381.565 425.538 378.522 426.079 374.938 426.079ZM413.398 402.167C416.833 402.727 419.465 404.015 421.294 406.031C423.124 408.01 424.038 410.474 424.038 413.423C424.038 415.701 423.441 417.81 422.246 419.751C421.052 421.655 419.222 423.186 416.758 424.343C414.332 425.501 411.345 426.079 407.798 426.079C405.036 426.079 402.31 425.725 399.622 425.015C396.972 424.269 394.713 423.223 392.846 421.879L396.374 414.935C397.868 416.055 399.585 416.933 401.526 417.567C403.505 418.165 405.521 418.463 407.574 418.463C409.852 418.463 411.644 418.034 412.95 417.175C414.257 416.279 414.91 415.029 414.91 413.423C414.91 410.213 412.465 408.607 407.574 408.607H403.43V402.615L411.494 393.487H394.806V386.207H422.246V392.087L413.398 402.167Z" fill="white"/>
</svg>
