<svg width="699" height="509" viewBox="0 0 699 509" fill="none" xmlns="http://www.w3.org/2000/svg">
<rect width="699" height="509" fill="black" fill-opacity="0"/>
<path d="M533.928 170.795L370.2 7.07203C360.776 -2.35734 345.483 -2.35734 336.048 7.07203L302.049 41.0717L345.179 84.2019C355.201 80.8151 366.694 83.0871 374.684 91.0765C382.711 99.1172 384.967 110.709 381.498 120.764L423.063 162.331C433.119 158.866 444.722 161.108 452.754 169.153C463.979 180.374 463.979 198.56 452.754 209.788C441.526 221.018 423.34 221.018 412.106 209.788C403.663 201.336 401.577 188.936 405.851 178.534L367.088 139.77L367.084 241.78C369.894 243.169 372.46 245.004 374.684 247.214C385.909 258.435 385.909 276.623 374.684 287.86C363.455 299.084 345.261 299.084 334.049 287.86C322.824 276.623 322.824 258.437 334.049 247.216C336.739 244.524 339.936 242.393 343.454 240.945V137.985C339.93 136.546 336.732 134.413 334.049 131.714C325.544 123.22 323.499 110.741 327.857 100.298L285.341 57.7771L173.075 170.037C163.642 179.476 163.642 194.77 173.075 204.201L336.807 367.927C346.233 377.358 361.523 377.358 370.961 367.927L533.927 204.961C543.358 195.528 543.358 180.224 533.927 170.795" fill="white"/>
<path d="M338.445 441.784H346.733V457.688C344.605 459.293 342.141 460.525 339.341 461.384C336.541 462.243 333.722 462.672 330.885 462.672C326.815 462.672 323.157 461.813 319.909 460.096C316.661 458.341 314.103 455.933 312.237 452.872C310.407 449.773 309.493 446.283 309.493 442.4C309.493 438.517 310.407 435.045 312.237 431.984C314.103 428.885 316.679 426.477 319.965 424.76C323.25 423.005 326.946 422.128 331.053 422.128C334.487 422.128 337.605 422.707 340.405 423.864C343.205 425.021 345.557 426.701 347.461 428.904L341.637 434.28C338.837 431.331 335.458 429.856 331.501 429.856C328.999 429.856 326.778 430.379 324.837 431.424C322.895 432.469 321.383 433.944 320.301 435.848C319.218 437.752 318.677 439.936 318.677 442.4C318.677 444.827 319.218 446.992 320.301 448.896C321.383 450.8 322.877 452.293 324.781 453.376C326.722 454.421 328.925 454.944 331.389 454.944C334.002 454.944 336.354 454.384 338.445 453.264V441.784ZM354.544 431.872H363.28V462H354.544V431.872ZM358.912 427.672C357.306 427.672 356 427.205 354.992 426.272C353.984 425.339 353.48 424.181 353.48 422.8C353.48 421.419 353.984 420.261 354.992 419.328C356 418.395 357.306 417.928 358.912 417.928C360.517 417.928 361.824 418.376 362.832 419.272C363.84 420.168 364.344 421.288 364.344 422.632C364.344 424.088 363.84 425.301 362.832 426.272C361.824 427.205 360.517 427.672 358.912 427.672ZM390.819 460.544C389.961 461.179 388.897 461.664 387.627 462C386.395 462.299 385.089 462.448 383.707 462.448C380.123 462.448 377.342 461.533 375.363 459.704C373.422 457.875 372.451 455.187 372.451 451.64V439.264H367.803V432.544H372.451V425.208H381.187V432.544H388.691V439.264H381.187V451.528C381.187 452.797 381.505 453.787 382.139 454.496C382.811 455.168 383.745 455.504 384.939 455.504C386.321 455.504 387.497 455.131 388.467 454.384L390.819 460.544Z" fill="white"/>
</svg>
