<svg width="699" height="489" viewBox="0 0 699 489" fill="none" xmlns="http://www.w3.org/2000/svg">
<rect width="699" height="489" fill="black" fill-opacity="0"/>
<rect width="345" height="336" fill="black" fill-opacity="0" transform="translate(189)"/>
<path d="M361.501 0C266.243 0 189 77.1189 189 172.253C189 248.36 238.427 312.927 306.967 335.704C315.588 337.298 318.753 331.967 318.753 327.417C318.753 323.311 318.592 309.74 318.519 295.347C270.528 305.767 260.402 275.024 260.402 275.024C252.555 255.113 241.249 249.82 241.249 249.82C225.598 239.129 242.428 239.348 242.428 239.348C259.751 240.564 268.872 257.099 268.872 257.099C284.257 283.433 309.226 275.819 319.07 271.419C320.618 260.285 325.089 252.687 330.022 248.386C291.708 244.029 251.429 229.259 251.429 163.257C251.429 144.452 258.168 129.085 269.204 117.022C267.412 112.683 261.508 95.1636 270.874 71.4369C270.874 71.4369 285.36 66.8071 318.324 89.0938C332.083 85.276 346.841 83.363 361.501 83.2982C376.161 83.363 390.929 85.276 404.715 89.0938C437.64 66.8071 452.105 71.4369 452.105 71.4369C461.494 95.1636 455.588 112.683 453.796 117.022C464.856 129.085 471.549 144.45 471.549 163.257C471.549 229.415 431.195 243.984 392.784 248.248C398.97 253.593 404.483 264.077 404.483 280.146C404.483 303.194 404.283 321.743 404.283 327.417C404.283 332.001 407.388 337.373 416.133 335.681C484.636 312.878 534 248.334 534 172.253C534 77.1189 456.767 0 361.501 0Z" fill="white"/>
<path d="M253.608 245.378C253.229 246.233 251.879 246.49 250.651 245.903C249.4 245.341 248.697 244.174 249.102 243.315C249.474 242.434 250.825 242.188 252.073 242.78C253.327 243.341 254.042 244.519 253.608 245.378ZM262.093 252.938C261.27 253.7 259.662 253.346 258.57 252.142C257.442 250.941 257.231 249.336 258.065 248.562C258.914 247.802 260.473 248.157 261.604 249.359C262.733 250.574 262.952 252.169 262.092 252.939L262.093 252.938ZM267.914 262.611C266.856 263.344 265.127 262.657 264.06 261.125C263.003 259.594 263.003 257.757 264.083 257.02C265.154 256.284 266.856 256.946 267.939 258.466C268.994 260.024 268.994 261.861 267.913 262.612L267.914 262.611ZM277.758 273.814C276.812 274.854 274.799 274.576 273.325 273.155C271.817 271.766 271.397 269.795 272.345 268.753C273.302 267.711 275.327 268.004 276.812 269.413C278.31 270.799 278.767 272.785 277.759 273.814H277.758ZM290.481 277.597C290.065 278.945 288.125 279.558 286.172 278.986C284.221 278.395 282.944 276.815 283.337 275.451C283.743 274.094 285.691 273.455 287.66 274.068C289.608 274.656 290.888 276.224 290.482 277.597H290.481ZM304.962 279.2C305.011 280.622 303.353 281.8 301.302 281.825C299.239 281.87 297.571 280.72 297.549 279.323C297.549 277.889 299.169 276.721 301.231 276.688C303.282 276.647 304.962 277.789 304.962 279.2ZM319.186 278.656C319.433 280.042 318.007 281.466 315.97 281.844C313.968 282.209 312.115 281.354 311.859 279.98C311.61 278.559 313.063 277.136 315.061 276.767C317.102 276.413 318.927 277.247 319.186 278.656Z" fill="white"/>
<path d="M280.531 421.784H288.819V437.688C286.691 439.293 284.227 440.525 281.427 441.384C278.627 442.243 275.808 442.672 272.971 442.672C268.901 442.672 265.243 441.813 261.995 440.096C258.747 438.341 256.189 435.933 254.323 432.872C252.493 429.773 251.579 426.283 251.579 422.4C251.579 418.517 252.493 415.045 254.323 411.984C256.189 408.885 258.765 406.477 262.051 404.76C265.336 403.005 269.032 402.128 273.139 402.128C276.573 402.128 279.691 402.707 282.491 403.864C285.291 405.021 287.643 406.701 289.547 408.904L283.723 414.28C280.923 411.331 277.544 409.856 273.587 409.856C271.085 409.856 268.864 410.379 266.923 411.424C264.981 412.469 263.469 413.944 262.387 415.848C261.304 417.752 260.763 419.936 260.763 422.4C260.763 424.827 261.304 426.992 262.387 428.896C263.469 430.8 264.963 432.293 266.867 433.376C268.808 434.421 271.011 434.944 273.475 434.944C276.088 434.944 278.44 434.384 280.531 433.264V421.784ZM296.63 411.872H305.366V442H296.63V411.872ZM300.998 407.672C299.392 407.672 298.086 407.205 297.078 406.272C296.07 405.339 295.566 404.181 295.566 402.8C295.566 401.419 296.07 400.261 297.078 399.328C298.086 398.395 299.392 397.928 300.998 397.928C302.603 397.928 303.91 398.376 304.918 399.272C305.926 400.168 306.43 401.288 306.43 402.632C306.43 404.088 305.926 405.301 304.918 406.272C303.91 407.205 302.603 407.672 300.998 407.672ZM332.905 440.544C332.047 441.179 330.983 441.664 329.713 442C328.481 442.299 327.175 442.448 325.793 442.448C322.209 442.448 319.428 441.533 317.449 439.704C315.508 437.875 314.537 435.187 314.537 431.64V419.264H309.889V412.544H314.537V405.208H323.273V412.544H330.777V419.264H323.273V431.528C323.273 432.797 323.591 433.787 324.225 434.496C324.897 435.168 325.831 435.504 327.025 435.504C328.407 435.504 329.583 435.131 330.553 434.384L332.905 440.544ZM356.121 411.424C359.855 411.424 362.86 412.544 365.137 414.784C367.452 417.024 368.609 420.347 368.609 424.752V442H359.873V426.096C359.873 423.707 359.351 421.933 358.305 420.776C357.26 419.581 355.748 418.984 353.769 418.984C351.567 418.984 349.812 419.675 348.505 421.056C347.199 422.4 346.545 424.416 346.545 427.104V442H337.809V400.448H346.545V415.008C347.703 413.851 349.103 412.973 350.745 412.376C352.388 411.741 354.18 411.424 356.121 411.424ZM406.88 411.872V442H398.592V438.416C397.435 439.723 396.053 440.731 394.448 441.44C392.843 442.112 391.107 442.448 389.24 442.448C385.283 442.448 382.147 441.309 379.832 439.032C377.517 436.755 376.36 433.376 376.36 428.896V411.872H385.096V427.608C385.096 432.461 387.131 434.888 391.2 434.888C393.291 434.888 394.971 434.216 396.24 432.872C397.509 431.491 398.144 429.456 398.144 426.768V411.872H406.88ZM432.781 411.424C435.581 411.424 438.12 412.077 440.397 413.384C442.712 414.653 444.523 416.464 445.829 418.816C447.136 421.131 447.789 423.837 447.789 426.936C447.789 430.035 447.136 432.76 445.829 435.112C444.523 437.427 442.712 439.237 440.397 440.544C438.12 441.813 435.581 442.448 432.781 442.448C428.637 442.448 425.483 441.141 423.317 438.528V442H414.973V400.448H423.709V415.064C425.912 412.637 428.936 411.424 432.781 411.424ZM431.269 435.28C433.509 435.28 435.339 434.533 436.757 433.04C438.213 431.509 438.941 429.475 438.941 426.936C438.941 424.397 438.213 422.381 436.757 420.888C435.339 419.357 433.509 418.592 431.269 418.592C429.029 418.592 427.181 419.357 425.725 420.888C424.307 422.381 423.597 424.397 423.597 426.936C423.597 429.475 424.307 431.509 425.725 433.04C427.181 434.533 429.029 435.28 431.269 435.28Z" fill="white"/>
</svg>
