<svg width="699" height="484" viewBox="0 0 699 484" fill="none" xmlns="http://www.w3.org/2000/svg">
<rect width="699" height="484" fill="black" fill-opacity="0"/>
<path d="M350 326L415.182 125.451H284.817L349.999 326H350Z" fill="#D5D5D5"/>
<path d="M350 325.999L284.817 125.45H193.468L350 325.999Z" fill="#E5E5E5"/>
<path d="M193.468 125.45L173.661 186.396C172.78 189.106 172.78 192.025 173.66 194.734C174.541 197.444 176.257 199.805 178.562 201.479L350 326L193.467 125.452L193.468 125.45Z" fill="white"/>
<path d="M193.468 125.451H284.817L245.561 4.66113C243.54 -1.5544 234.745 -1.55302 232.726 4.66113L193.468 125.451Z" fill="#D5D5D5"/>
<path d="M350 325.999L415.182 125.45H506.532L349.999 325.999H350Z" fill="#E5E5E5"/>
<path d="M506.532 125.45L526.34 186.396C527.22 189.106 527.22 192.025 526.339 194.734C525.459 197.444 523.743 199.805 521.437 201.479L350 326L506.532 125.452V125.45Z" fill="white"/>
<path d="M506.532 125.451H415.182L454.44 4.66113C456.46 -1.5544 465.255 -1.55302 467.274 4.66113L506.532 125.451Z" fill="#D5D5D5"/>
<path d="M293.409 416.784H301.697V432.688C299.569 434.293 297.105 435.525 294.305 436.384C291.505 437.243 288.687 437.672 285.849 437.672C281.78 437.672 278.121 436.813 274.873 435.096C271.625 433.341 269.068 430.933 267.201 427.872C265.372 424.773 264.457 421.283 264.457 417.4C264.457 413.517 265.372 410.045 267.201 406.984C269.068 403.885 271.644 401.477 274.929 399.76C278.215 398.005 281.911 397.128 286.017 397.128C289.452 397.128 292.569 397.707 295.369 398.864C298.169 400.021 300.521 401.701 302.425 403.904L296.601 409.28C293.801 406.331 290.423 404.856 286.465 404.856C283.964 404.856 281.743 405.379 279.801 406.424C277.86 407.469 276.348 408.944 275.265 410.848C274.183 412.752 273.641 414.936 273.641 417.4C273.641 419.827 274.183 421.992 275.265 423.896C276.348 425.8 277.841 427.293 279.745 428.376C281.687 429.421 283.889 429.944 286.353 429.944C288.967 429.944 291.319 429.384 293.409 428.264V416.784ZM309.509 406.872H318.245V437H309.509V406.872ZM313.877 402.672C312.271 402.672 310.965 402.205 309.957 401.272C308.949 400.339 308.445 399.181 308.445 397.8C308.445 396.419 308.949 395.261 309.957 394.328C310.965 393.395 312.271 392.928 313.877 392.928C315.482 392.928 316.789 393.376 317.797 394.272C318.805 395.168 319.309 396.288 319.309 397.632C319.309 399.088 318.805 400.301 317.797 401.272C316.789 402.205 315.482 402.672 313.877 402.672ZM345.784 435.544C344.926 436.179 343.862 436.664 342.592 437C341.36 437.299 340.054 437.448 338.672 437.448C335.088 437.448 332.307 436.533 330.328 434.704C328.387 432.875 327.416 430.187 327.416 426.64V414.264H322.768V407.544H327.416V400.208H336.152V407.544H343.656V414.264H336.152V426.528C336.152 427.797 336.47 428.787 337.104 429.496C337.776 430.168 338.71 430.504 339.904 430.504C341.286 430.504 342.462 430.131 343.432 429.384L345.784 435.544ZM350.688 395.448H359.424V437H350.688V395.448ZM379.684 406.424C384.351 406.424 387.935 407.544 390.436 409.784C392.937 411.987 394.188 415.328 394.188 419.808V437H386.012V433.248C384.369 436.048 381.308 437.448 376.828 437.448C374.513 437.448 372.497 437.056 370.78 436.272C369.1 435.488 367.812 434.405 366.916 433.024C366.02 431.643 365.572 430.075 365.572 428.32C365.572 425.52 366.617 423.317 368.708 421.712C370.836 420.107 374.103 419.304 378.508 419.304H385.452C385.452 417.4 384.873 415.944 383.716 414.936C382.559 413.891 380.823 413.368 378.508 413.368C376.903 413.368 375.316 413.629 373.748 414.152C372.217 414.637 370.911 415.309 369.828 416.168L366.692 410.064C368.335 408.907 370.295 408.011 372.572 407.376C374.887 406.741 377.257 406.424 379.684 406.424ZM379.012 431.568C380.505 431.568 381.831 431.232 382.988 430.56C384.145 429.851 384.967 428.824 385.452 427.48V424.4H379.46C375.876 424.4 374.084 425.576 374.084 427.928C374.084 429.048 374.513 429.944 375.372 430.616C376.268 431.251 377.481 431.568 379.012 431.568ZM419.903 406.424C422.703 406.424 425.241 407.077 427.519 408.384C429.833 409.653 431.644 411.464 432.951 413.816C434.257 416.131 434.911 418.837 434.911 421.936C434.911 425.035 434.257 427.76 432.951 430.112C431.644 432.427 429.833 434.237 427.519 435.544C425.241 436.813 422.703 437.448 419.903 437.448C415.759 437.448 412.604 436.141 410.439 433.528V437H402.095V395.448H410.831V410.064C413.033 407.637 416.057 406.424 419.903 406.424ZM418.391 430.28C420.631 430.28 422.46 429.533 423.879 428.04C425.335 426.509 426.062 424.475 426.062 421.936C426.062 419.397 425.335 417.381 423.879 415.888C422.46 414.357 420.631 413.592 418.391 413.592C416.151 413.592 414.303 414.357 412.846 415.888C411.428 417.381 410.719 419.397 410.719 421.936C410.719 424.475 411.428 426.509 412.846 428.04C414.303 429.533 416.151 430.28 418.391 430.28Z" fill="white"/>
</svg>
