<svg width="699" height="469" viewBox="0 0 699 469" fill="none" xmlns="http://www.w3.org/2000/svg">
<rect width="699" height="469" fill="black" fill-opacity="0"/>
<rect width="300" height="341" fill="black" fill-opacity="0" transform="translate(198)"/>
<rect width="300" height="341" fill="black" fill-opacity="0" transform="translate(198)"/>
<rect width="300" height="341" fill="black" fill-opacity="0" transform="translate(198)"/>
<path fill-rule="evenodd" clip-rule="evenodd" d="M198 0L225.302 306.913L347.817 341L470.669 306.864L498 0H198ZM298.303 138.924H348L425.05 138.924H435.171L434.255 149.033L425.429 248.13L424.864 254.489L348 275.839V275.846L347.826 275.894L270.895 254.488L265.633 195.386H283.01H303.335L306.009 225.407L347.836 236.727L347.87 236.715L348 236.683L389.758 225.384L394.118 176.566L348 176.566L347.87 176.566L263.956 176.566L254.725 72.835L253.826 62.7366H347.87H348H441.951L441.053 72.835L439.341 91.9177L438.588 100.379H438.468H348H347.87H294.871L298.303 138.924Z" fill="white"/>
<path d="M289.885 382.8V422H280.813V405.928H263.005V422H253.933V382.8H263.005V398.256H280.813V382.8H289.885ZM307.28 390.192H294.736V382.8H328.896V390.192H316.352V422H307.28V390.192ZM369.449 422L369.393 398.48L357.857 417.856H353.769L342.289 398.984V422H333.777V382.8H341.281L355.953 407.16L370.401 382.8H377.849L377.961 422H369.449ZM387.261 382.8H396.333V414.608H415.989V422H387.261V382.8ZM432.034 397.528C437.559 397.528 441.629 398.629 444.242 400.832C446.893 403.035 448.218 405.984 448.218 409.68C448.218 412.069 447.621 414.253 446.426 416.232C445.231 418.173 443.402 419.741 440.938 420.936C438.511 422.093 435.506 422.672 431.922 422.672C429.159 422.672 426.434 422.317 423.746 421.608C421.095 420.861 418.837 419.816 416.97 418.472L420.554 411.528C422.047 412.648 423.765 413.525 425.706 414.16C427.647 414.757 429.645 415.056 431.698 415.056C433.975 415.056 435.767 414.608 437.074 413.712C438.381 412.816 439.034 411.565 439.034 409.96C439.034 408.28 438.343 407.011 436.962 406.152C435.618 405.293 433.266 404.864 429.906 404.864H419.882L421.898 382.8H445.81V390.08H429.458L428.842 397.528H432.034Z" fill="white"/>
</svg>
