<svg width="87" height="70" viewBox="0 0 87 70" fill="none" xmlns="http://www.w3.org/2000/svg">
<rect width="87" height="70" fill="black" fill-opacity="0"/>
<path d="M6.21429 14H80.7857C84.216 14 87 10.864 87 7C87 3.136 84.216 0 80.7857 0H6.21429C2.784 0 0 3.136 0 7C0 10.864 2.784 14 6.21429 14ZM80.7857 28H6.21429C2.784 28 0 31.136 0 35C0 38.864 2.784 42 6.21429 42H80.7857C84.216 42 87 38.864 87 35C87 31.136 84.216 28 80.7857 28ZM80.7857 56H6.21429C2.784 56 0 59.136 0 63C0 66.864 2.784 70 6.21429 70H80.7857C84.216 70 87 66.864 87 63C87 59.136 84.216 56 80.7857 56Z" fill="white"/>
</svg>
