<svg width="699" height="462" viewBox="0 0 699 462" fill="none" xmlns="http://www.w3.org/2000/svg">
<rect width="699" height="462" fill="black" fill-opacity="0"/>
<rect width="291" height="328" fill="black" fill-opacity="0" transform="translate(200)"/>
<path d="M345.5 328C340.981 328 336.764 326.795 332.848 324.685L292.783 300.88C286.758 297.565 289.77 296.36 291.578 295.757C299.711 293.045 301.217 292.443 309.652 287.621C310.556 287.019 311.761 287.32 312.665 287.923L343.391 306.304C344.596 306.907 346.102 306.907 347.006 306.304L467.202 236.696C468.407 236.094 469.009 234.888 469.009 233.382V94.4676C469.009 92.961 468.407 91.7556 467.202 91.153L347.006 21.8466C345.801 21.2439 344.295 21.2439 343.391 21.8466L223.196 91.153C221.991 91.7556 221.388 93.2623 221.388 94.4676V233.382C221.388 234.587 221.991 236.094 223.196 236.696L256.031 255.68C273.804 264.72 284.95 254.174 284.95 243.627V106.521C284.95 104.713 286.457 102.905 288.565 102.905H303.929C305.736 102.905 307.543 104.412 307.543 106.521V243.627C307.543 267.432 294.59 281.294 271.997 281.294C265.068 281.294 259.646 281.294 244.283 273.76L212.652 255.68C204.82 251.16 200 242.723 200 233.683V94.7689C200 85.729 204.82 77.2917 212.652 72.7717L332.848 3.16399C340.379 -1.05466 350.621 -1.05466 358.152 3.16399L478.348 72.7717C486.18 77.2917 491 85.729 491 94.7689V233.683C491 242.723 486.18 251.16 478.348 255.68L358.152 325.288C354.236 327.096 349.717 328 345.5 328ZM382.553 232.478C329.835 232.478 318.991 208.371 318.991 187.881C318.991 186.073 320.497 184.265 322.606 184.265H338.27C340.078 184.265 341.584 185.47 341.584 187.278C343.994 203.249 350.922 211.083 382.854 211.083C408.158 211.083 419.003 205.358 419.003 191.798C419.003 183.963 415.991 178.238 376.528 174.321C343.693 171.006 323.208 163.774 323.208 137.558C323.208 113.15 343.693 98.6863 378.034 98.6863C416.593 98.6863 435.571 111.945 437.981 140.873C437.981 141.777 437.68 142.681 437.078 143.585C436.475 144.187 435.571 144.79 434.668 144.79H419.003C417.497 144.79 415.991 143.585 415.689 142.078C412.075 125.505 402.736 120.081 378.034 120.081C350.32 120.081 347.006 129.723 347.006 136.955C347.006 145.694 350.922 148.406 388.276 153.227C425.329 158.049 442.801 164.979 442.801 190.894C442.5 217.411 420.811 232.478 382.553 232.478Z" fill="white"/>
<path d="M281.026 375.8V415H273.578L254.034 391.2V415H245.074V375.8H252.578L272.066 399.6V375.8H281.026ZM304.02 415.448C300.847 415.448 297.991 414.795 295.452 413.488C292.951 412.144 290.991 410.296 289.572 407.944C288.154 405.592 287.444 402.923 287.444 399.936C287.444 396.949 288.154 394.28 289.572 391.928C290.991 389.576 292.951 387.747 295.452 386.44C297.991 385.096 300.847 384.424 304.02 384.424C307.194 384.424 310.031 385.096 312.532 386.44C315.034 387.747 316.994 389.576 318.412 391.928C319.831 394.28 320.54 396.949 320.54 399.936C320.54 402.923 319.831 405.592 318.412 407.944C316.994 410.296 315.034 412.144 312.532 413.488C310.031 414.795 307.194 415.448 304.02 415.448ZM304.02 408.28C306.26 408.28 308.09 407.533 309.508 406.04C310.964 404.509 311.692 402.475 311.692 399.936C311.692 397.397 310.964 395.381 309.508 393.888C308.09 392.357 306.26 391.592 304.02 391.592C301.78 391.592 299.932 392.357 298.476 393.888C297.02 395.381 296.292 397.397 296.292 399.936C296.292 402.475 297.02 404.509 298.476 406.04C299.932 407.533 301.78 408.28 304.02 408.28ZM357.068 373.448V415H348.724V411.528C346.558 414.141 343.422 415.448 339.316 415.448C336.478 415.448 333.902 414.813 331.588 413.544C329.31 412.275 327.518 410.464 326.212 408.112C324.905 405.76 324.252 403.035 324.252 399.936C324.252 396.837 324.905 394.112 326.212 391.76C327.518 389.408 329.31 387.597 331.588 386.328C333.902 385.059 336.478 384.424 339.316 384.424C343.161 384.424 346.166 385.637 348.332 388.064V373.448H357.068ZM340.828 408.28C343.03 408.28 344.86 407.533 346.316 406.04C347.772 404.509 348.5 402.475 348.5 399.936C348.5 397.397 347.772 395.381 346.316 393.888C344.86 392.357 343.03 391.592 340.828 391.592C338.588 391.592 336.74 392.357 335.284 393.888C333.828 395.381 333.1 397.397 333.1 399.936C333.1 402.475 333.828 404.509 335.284 406.04C336.74 407.533 338.588 408.28 340.828 408.28ZM394.665 400.048C394.665 400.16 394.609 400.944 394.497 402.4H371.705C372.116 404.267 373.086 405.741 374.617 406.824C376.148 407.907 378.052 408.448 380.329 408.448C381.897 408.448 383.278 408.224 384.473 407.776C385.705 407.291 386.844 406.544 387.889 405.536L392.537 410.576C389.7 413.824 385.556 415.448 380.105 415.448C376.708 415.448 373.702 414.795 371.089 413.488C368.476 412.144 366.46 410.296 365.041 407.944C363.622 405.592 362.913 402.923 362.913 399.936C362.913 396.987 363.604 394.336 364.985 391.984C366.404 389.595 368.326 387.747 370.753 386.44C373.217 385.096 375.961 384.424 378.985 384.424C381.934 384.424 384.604 385.059 386.993 386.328C389.382 387.597 391.249 389.427 392.593 391.816C393.974 394.168 394.665 396.912 394.665 400.048ZM379.041 391.032C377.062 391.032 375.401 391.592 374.057 392.712C372.713 393.832 371.892 395.363 371.593 397.304H386.433C386.134 395.4 385.313 393.888 383.969 392.768C382.625 391.611 380.982 391.032 379.041 391.032ZM403.785 415.448C402.255 415.448 400.967 414.925 399.921 413.88C398.876 412.835 398.353 411.528 398.353 409.96C398.353 408.355 398.876 407.067 399.921 406.096C400.967 405.088 402.255 404.584 403.785 404.584C405.316 404.584 406.604 405.088 407.649 406.096C408.695 407.067 409.217 408.355 409.217 409.96C409.217 411.528 408.695 412.835 407.649 413.88C406.604 414.925 405.316 415.448 403.785 415.448ZM413.444 426.312C410.383 426.312 408.05 425.752 406.444 424.632L408.796 418.304C409.804 419.013 411.036 419.368 412.492 419.368C413.612 419.368 414.49 418.995 415.124 418.248C415.759 417.539 416.076 416.456 416.076 415V384.872H424.812V414.944C424.812 418.453 423.804 421.216 421.788 423.232C419.81 425.285 417.028 426.312 413.444 426.312ZM420.444 380.672C418.839 380.672 417.532 380.205 416.524 379.272C415.516 378.339 415.012 377.181 415.012 375.8C415.012 374.419 415.516 373.261 416.524 372.328C417.532 371.395 418.839 370.928 420.444 370.928C422.05 370.928 423.356 371.376 424.364 372.272C425.372 373.168 425.876 374.288 425.876 375.632C425.876 377.088 425.372 378.301 424.364 379.272C423.356 380.205 422.05 380.672 420.444 380.672ZM442.992 415.448C440.491 415.448 438.046 415.149 435.656 414.552C433.267 413.917 431.363 413.133 429.944 412.2L432.856 405.928C434.2 406.787 435.824 407.496 437.728 408.056C439.632 408.579 441.499 408.84 443.328 408.84C447.024 408.84 448.872 407.925 448.872 406.096C448.872 405.237 448.368 404.621 447.36 404.248C446.352 403.875 444.803 403.557 442.712 403.296C440.248 402.923 438.214 402.493 436.608 402.008C435.003 401.523 433.603 400.664 432.408 399.432C431.251 398.2 430.672 396.445 430.672 394.168C430.672 392.264 431.214 390.584 432.296 389.128C433.416 387.635 435.022 386.477 437.112 385.656C439.24 384.835 441.742 384.424 444.616 384.424C446.744 384.424 448.854 384.667 450.944 385.152C453.072 385.6 454.827 386.235 456.208 387.056L453.296 393.272C450.646 391.779 447.752 391.032 444.616 391.032C442.75 391.032 441.35 391.293 440.416 391.816C439.483 392.339 439.016 393.011 439.016 393.832C439.016 394.765 439.52 395.419 440.528 395.792C441.536 396.165 443.142 396.52 445.344 396.856C447.808 397.267 449.824 397.715 451.392 398.2C452.96 398.648 454.323 399.488 455.48 400.72C456.638 401.952 457.216 403.669 457.216 405.872C457.216 407.739 456.656 409.4 455.536 410.856C454.416 412.312 452.774 413.451 450.608 414.272C448.48 415.056 445.942 415.448 442.992 415.448Z" fill="white"/>
</svg>
