<svg width="699" height="471" viewBox="0 0 699 471" fill="none" xmlns="http://www.w3.org/2000/svg">
<rect width="699" height="471" fill="black" fill-opacity="0"/>
<path d="M306.089 424L298.529 413.08H298.081H290.185V424H281.113V384.8H298.081C301.553 384.8 304.558 385.379 307.097 386.536C309.673 387.693 311.652 389.336 313.033 391.464C314.414 393.592 315.105 396.112 315.105 399.024C315.105 401.936 314.396 404.456 312.977 406.584C311.596 408.675 309.617 410.28 307.041 411.4L315.833 424H306.089ZM305.921 399.024C305.921 396.821 305.212 395.141 303.793 393.984C302.374 392.789 300.302 392.192 297.577 392.192H290.185V405.856H297.577C300.302 405.856 302.374 405.259 303.793 404.064C305.212 402.869 305.921 401.189 305.921 399.024ZM345.895 424L336.431 410.392L327.135 424H316.719L331.223 404.064L317.447 384.8H327.751L336.767 397.512L345.615 384.8H355.415L341.751 403.728L356.367 424H345.895ZM368.399 424.672C365.749 424.672 363.303 424.187 361.063 423.216C358.861 422.208 357.05 420.789 355.631 418.96L360.671 412.912C362.799 415.787 365.226 417.224 367.951 417.224C371.647 417.224 373.495 415.059 373.495 410.728V392.08H359.719V384.8H382.511V410.224C382.511 415.04 381.317 418.661 378.927 421.088C376.538 423.477 373.029 424.672 368.399 424.672ZM404.352 424.672C401.254 424.672 398.248 424.261 395.336 423.44C392.462 422.581 390.147 421.48 388.392 420.136L391.472 413.304C393.152 414.536 395.15 415.525 397.464 416.272C399.779 417.019 402.094 417.392 404.408 417.392C406.984 417.392 408.888 417.019 410.12 416.272C411.352 415.488 411.968 414.461 411.968 413.192C411.968 412.259 411.595 411.493 410.848 410.896C410.139 410.261 409.206 409.757 408.048 409.384C406.928 409.011 405.398 408.6 403.456 408.152C400.47 407.443 398.024 406.733 396.12 406.024C394.216 405.315 392.574 404.176 391.192 402.608C389.848 401.04 389.176 398.949 389.176 396.336C389.176 394.059 389.792 392.005 391.024 390.176C392.256 388.309 394.104 386.835 396.568 385.752C399.07 384.669 402.112 384.128 405.696 384.128C408.198 384.128 410.643 384.427 413.032 385.024C415.422 385.621 417.512 386.48 419.304 387.6L416.504 394.488C412.883 392.435 409.262 391.408 405.64 391.408C403.102 391.408 401.216 391.819 399.984 392.64C398.79 393.461 398.192 394.544 398.192 395.888C398.192 397.232 398.883 398.24 400.264 398.912C401.683 399.547 403.83 400.181 406.704 400.816C409.691 401.525 412.136 402.235 414.04 402.944C415.944 403.653 417.568 404.773 418.912 406.304C420.294 407.835 420.984 409.907 420.984 412.52C420.984 414.76 420.35 416.813 419.08 418.68C417.848 420.509 415.982 421.965 413.48 423.048C410.979 424.131 407.936 424.672 404.352 424.672Z" fill="white"/>
<path d="M207.101 207.775C189.726 115.458 235.647 26.4241 341.048 14.5789C326.512 -0.94073 306.656 -1.05721 297.521 0.831616C281.39 5.96732 281.896 16.3989 263.598 29.8721C245.408 40.2534 236.272 32.3037 223.023 43.0661C209.8 53.7479 219.026 78.2708 213.48 83.0399C207.976 92.574 190.901 101.068 187.792 113.11C185.222 128.512 194.764 139.514 194.397 152.716C195.5 163.717 183.438 169.938 185.171 178.855C190.362 193.422 200.366 202.189 205.083 206.23C206.164 206.993 207.305 208.869 207.1 207.775H207.101Z" fill="white"/>
<path d="M394.646 79.9836C393.731 79.9835 392.824 79.8032 391.978 79.4529C391.132 79.1025 390.363 78.5891 389.715 77.942C389.068 77.2948 388.554 76.5265 388.204 75.6809C387.853 74.8354 387.673 73.9292 387.673 73.014C387.673 72.0988 387.854 71.1926 388.204 70.3471C388.555 69.5017 389.069 68.7335 389.716 68.0864C390.364 67.4393 391.133 66.9261 391.979 66.5759C392.825 66.2258 393.732 66.0456 394.648 66.0457C396.497 66.0457 398.271 66.7799 399.579 68.0869C400.887 69.3938 401.622 71.1664 401.622 73.0146C401.622 74.8629 400.887 76.6355 399.579 77.9424C398.271 79.2494 396.497 79.9836 394.648 79.9836H394.646ZM211.17 217.845C194.472 137.612 246.143 70.5712 346.206 103.576C404.92 137.901 478.781 135.665 482.11 113.477C490.332 86.8784 444.678 32.0654 376.42 17.7635C241.005 -8.64166 168.002 137.612 211.17 217.844V217.845Z" fill="url(#paint0_radial)"/>
<path d="M433.302 226.793C453.409 228.97 472.496 224.148 490.183 209.741C463.461 239.526 430.048 254.502 391.711 258.576C410.017 274.128 427.669 281.132 444.556 278.134C397.632 291.074 358.318 276.832 310.493 229.239C307.989 242.051 321.53 262.012 335.487 274.754C254.506 239.671 247.407 130.381 346.154 103.498C243.792 54.3514 185.91 149.844 214.347 228.107C242.172 288.386 316.318 334.792 397.583 324.587C437.055 319.756 496.001 292.559 520.081 228.107C503.11 243.327 472.773 256.581 459.236 257.598C505.053 234.716 529.788 195.835 522.844 142.693C513.354 165.272 500.831 182.613 485.168 194.522C518.441 142.692 512.733 115.903 488.105 86.4614C505.719 134.869 482.932 188.594 433.302 226.793Z" fill="url(#paint1_radial)"/>
<path d="M409.789 282.562C406.312 281.913 417.67 287.159 395.711 281.349C373.754 275.541 351.397 269.944 310.493 229.238C307.989 242.051 321.53 262.011 335.487 274.754C373.163 301.012 347.541 288.731 404.947 308.562C409.554 299.4 409.789 291.257 409.789 282.562Z" fill="url(#paint2_linear)"/>
<path d="M336.797 76.3725C336.797 76.3725 341.788 69.0105 343.731 65.6908C346.113 61.6219 349.769 54.2069 349.769 54.2069C349.769 54.2069 311.351 41.6814 301.923 40.1526C272.614 47.7555 272.508 60.0256 288.893 78.8067C290.716 80.898 336.797 76.3725 336.797 76.3725Z" fill="url(#paint3_linear)"/>
<defs>
<radialGradient id="paint0_radial" cx="0" cy="0" r="1" gradientUnits="userSpaceOnUse" gradientTransform="translate(422.692 91.5359) scale(255.504 182.646)">
<stop stop-color="white"/>
<stop offset="1" stop-color="#C4C4C4"/>
</radialGradient>
<radialGradient id="paint1_radial" cx="0" cy="0" r="1" gradientUnits="userSpaceOnUse" gradientTransform="translate(424.941 96.9963) scale(258.979 195.77)">
<stop stop-color="#C4C4C4"/>
<stop offset="0.29175" stop-color="#C4C4C4"/>
<stop offset="1" stop-color="white"/>
</radialGradient>
<linearGradient id="paint2_linear" x1="328.357" y1="229.238" x2="374.088" y2="306.2" gradientUnits="userSpaceOnUse">
<stop stop-color="#C4C4C4"/>
<stop offset="0.66971" stop-color="#E5DEDE"/>
<stop offset="0.82715" stop-color="white"/>
<stop offset="1" stop-color="white"/>
</linearGradient>
<linearGradient id="paint3_linear" x1="324.552" y1="68.208" x2="317.916" y2="55.489" gradientUnits="userSpaceOnUse">
<stop stop-color="white"/>
<stop offset="0.40035" stop-color="white"/>
<stop offset="0.649" stop-color="#E5DEDE"/>
<stop offset="1" stop-color="#C4C4C4"/>
</linearGradient>
</defs>
</svg>
