<svg width="699" height="437" viewBox="0 0 699 437" fill="none" xmlns="http://www.w3.org/2000/svg">
<rect width="699" height="436.92" fill="black" fill-opacity="0" transform="translate(0 0.0803223)"/>
<rect width="340.173" height="302.92" fill="black" fill-opacity="0" transform="translate(175.827 0.0803223)"/>
<path d="M516 151.575C516 129.041 487.779 107.686 444.512 94.4437C454.497 50.3474 450.059 15.2644 430.506 4.03235C425.999 1.39766 420.729 0.149655 414.974 0.149655V15.6111C418.164 15.6111 420.729 16.2351 422.879 17.4138C432.309 22.8218 436.4 43.414 433.21 69.8995C432.448 76.4169 431.199 83.2809 429.674 90.2837C416.084 86.9556 401.245 84.3903 385.644 82.7263C376.284 69.8995 366.576 58.2514 356.8 48.0593C379.404 27.0512 400.621 15.5418 415.044 15.5418V0.0803223C395.976 0.0803223 371.014 13.6698 345.775 37.2433C320.536 13.8084 295.574 0.357659 276.506 0.357659V15.8191C290.859 15.8191 312.146 27.2592 334.75 48.1287C325.043 58.3208 315.335 69.8995 306.113 82.7263C290.443 84.3903 275.605 86.9556 262.014 90.353C260.42 83.4196 259.241 76.6942 258.409 70.2462C255.15 43.7606 259.172 23.1685 268.532 17.6911C270.612 16.4431 273.317 15.8884 276.506 15.8884V0.426991C270.682 0.426991 265.412 1.675 260.836 4.30969C241.352 15.5418 236.983 50.5554 247.037 94.513C203.909 107.825 175.827 129.111 175.827 151.575C175.827 174.108 204.048 195.463 247.315 208.706C237.33 252.802 241.768 287.885 261.321 299.117C265.828 301.752 271.098 303 276.922 303C295.99 303 320.952 289.41 346.191 265.837C371.43 289.272 396.392 302.723 415.46 302.723C421.284 302.723 426.554 301.475 431.13 298.84C450.614 287.608 454.982 252.594 444.928 208.637C487.918 195.394 516 174.039 516 151.575ZM425.722 105.329C423.156 114.273 419.967 123.495 416.361 132.716C413.518 127.169 410.537 121.623 407.278 116.076C404.088 110.529 400.691 105.121 397.293 99.8517C407.139 101.308 416.638 103.11 425.722 105.329ZM393.965 179.17C388.557 188.53 383.009 197.404 377.254 205.655C366.923 206.557 356.453 207.042 345.914 207.042C335.444 207.042 324.973 206.557 314.711 205.725C308.956 197.474 303.34 188.668 297.932 179.378C292.662 170.295 287.878 161.074 283.509 151.783C287.808 142.492 292.662 133.201 297.862 124.119C303.271 114.758 308.818 105.884 314.573 97.633C324.904 96.7317 335.374 96.2464 345.914 96.2464C356.384 96.2464 366.854 96.7317 377.116 97.5637C382.871 105.814 388.487 114.62 393.896 123.911C399.165 132.993 403.95 142.215 408.318 151.505C403.95 160.796 399.165 170.087 393.965 179.17ZM416.361 170.156C420.105 179.447 423.295 188.738 425.93 197.751C416.846 199.97 407.278 201.842 397.362 203.298C400.76 197.959 404.158 192.482 407.347 186.866C410.537 181.319 413.518 175.703 416.361 170.156ZM346.052 244.135C339.604 237.479 333.155 230.061 326.776 221.949C333.017 222.226 339.396 222.434 345.844 222.434C352.362 222.434 358.81 222.295 365.12 221.949C358.88 230.061 352.431 237.479 346.052 244.135ZM294.465 203.298C284.619 201.842 275.119 200.039 266.036 197.82C268.602 188.876 271.791 179.655 275.397 170.434C278.24 175.98 281.221 181.527 284.48 187.074C287.739 192.62 291.067 198.028 294.465 203.298ZM345.706 59.0141C352.154 65.6701 358.602 73.0889 364.982 81.2009C358.741 80.9236 352.362 80.7156 345.914 80.7156C339.396 80.7156 332.947 80.8542 326.638 81.2009C332.878 73.0889 339.326 65.6701 345.706 59.0141ZM294.395 99.8517C290.998 105.19 287.6 110.668 284.411 116.284C281.221 121.831 278.24 127.377 275.397 132.924C271.652 123.633 268.463 114.342 265.828 105.329C274.911 103.18 284.48 101.308 294.395 99.8517ZM231.644 186.658C207.099 176.188 191.22 162.46 191.22 151.575C191.22 140.689 207.099 126.892 231.644 116.492C237.607 113.926 244.125 111.638 250.851 109.489C254.803 123.079 260.004 137.223 266.452 151.713C260.073 166.135 254.942 180.21 251.059 193.73C244.195 191.58 237.677 189.223 231.644 186.658ZM268.948 285.736C259.518 280.328 255.427 259.736 258.617 233.25C259.38 226.733 260.628 219.869 262.153 212.866C275.743 216.194 290.582 218.759 306.183 220.423C315.543 233.25 325.251 244.898 335.027 255.09C312.423 276.098 291.206 287.608 276.783 287.608C273.663 287.538 271.028 286.914 268.948 285.736ZM433.418 232.903C436.677 259.389 432.656 279.981 423.295 285.458C421.215 286.706 418.511 287.261 415.321 287.261C400.968 287.261 379.681 275.821 357.077 254.952C366.784 244.759 376.492 233.181 385.714 220.354C401.384 218.69 416.222 216.125 429.813 212.727C431.407 219.73 432.656 226.455 433.418 232.903ZM460.113 186.658C454.15 189.223 447.633 191.511 440.907 193.66C436.955 180.071 431.754 165.927 425.306 151.436C431.685 137.015 436.816 122.94 440.699 109.42C447.563 111.569 454.081 113.926 460.183 116.492C484.729 126.961 500.607 140.689 500.607 151.575C500.538 162.46 484.659 176.258 460.113 186.658Z" fill="white"/>
<path d="M345.844 183.26C363.345 183.26 377.532 169.074 377.532 151.575C377.532 134.075 363.345 119.889 345.844 119.889C328.344 119.889 314.157 134.075 314.157 151.575C314.157 169.074 328.344 183.26 345.844 183.26Z" fill="white"/>
<path d="M263.569 390L256.009 379.08H255.561H247.665V390H238.593V350.8H255.561C259.033 350.8 262.039 351.379 264.577 352.536C267.153 353.693 269.132 355.336 270.513 357.464C271.895 359.592 272.585 362.112 272.585 365.024C272.585 367.936 271.876 370.456 270.457 372.584C269.076 374.675 267.097 376.28 264.521 377.4L273.313 390H263.569ZM263.401 365.024C263.401 362.821 262.692 361.141 261.273 359.984C259.855 358.789 257.783 358.192 255.057 358.192H247.665V371.856H255.057C257.783 371.856 259.855 371.259 261.273 370.064C262.692 368.869 263.401 367.189 263.401 365.024ZM308.669 375.048C308.669 375.16 308.613 375.944 308.501 377.4H285.709C286.12 379.267 287.09 380.741 288.621 381.824C290.152 382.907 292.056 383.448 294.333 383.448C295.901 383.448 297.282 383.224 298.477 382.776C299.709 382.291 300.848 381.544 301.893 380.536L306.541 385.576C303.704 388.824 299.56 390.448 294.109 390.448C290.712 390.448 287.706 389.795 285.093 388.488C282.48 387.144 280.464 385.296 279.045 382.944C277.626 380.592 276.917 377.923 276.917 374.936C276.917 371.987 277.608 369.336 278.989 366.984C280.408 364.595 282.33 362.747 284.757 361.44C287.221 360.096 289.965 359.424 292.989 359.424C295.938 359.424 298.608 360.059 300.997 361.328C303.386 362.597 305.253 364.427 306.597 366.816C307.978 369.168 308.669 371.912 308.669 375.048ZM293.045 366.032C291.066 366.032 289.405 366.592 288.061 367.712C286.717 368.832 285.896 370.363 285.597 372.304H300.437C300.138 370.4 299.317 368.888 297.973 367.768C296.629 366.611 294.986 366.032 293.045 366.032ZM325.817 359.424C330.483 359.424 334.067 360.544 336.569 362.784C339.07 364.987 340.321 368.328 340.321 372.808V390H332.145V386.248C330.502 389.048 327.441 390.448 322.961 390.448C320.646 390.448 318.63 390.056 316.913 389.272C315.233 388.488 313.945 387.405 313.049 386.024C312.153 384.643 311.705 383.075 311.705 381.32C311.705 378.52 312.75 376.317 314.841 374.712C316.969 373.107 320.235 372.304 324.641 372.304H331.585C331.585 370.4 331.006 368.944 329.849 367.936C328.691 366.891 326.955 366.368 324.641 366.368C323.035 366.368 321.449 366.629 319.881 367.152C318.35 367.637 317.043 368.309 315.961 369.168L312.825 363.064C314.467 361.907 316.427 361.011 318.705 360.376C321.019 359.741 323.39 359.424 325.817 359.424ZM325.145 384.568C326.638 384.568 327.963 384.232 329.121 383.56C330.278 382.851 331.099 381.824 331.585 380.48V377.4H325.593C322.009 377.4 320.217 378.576 320.217 380.928C320.217 382.048 320.646 382.944 321.505 383.616C322.401 384.251 323.614 384.568 325.145 384.568ZM363.115 390.448C359.905 390.448 357.011 389.795 354.435 388.488C351.897 387.144 349.899 385.296 348.443 382.944C347.025 380.592 346.315 377.923 346.315 374.936C346.315 371.949 347.025 369.28 348.443 366.928C349.899 364.576 351.897 362.747 354.435 361.44C357.011 360.096 359.905 359.424 363.115 359.424C366.289 359.424 369.051 360.096 371.403 361.44C373.793 362.747 375.529 364.632 376.611 367.096L369.835 370.736C368.267 367.973 366.009 366.592 363.059 366.592C360.782 366.592 358.897 367.339 357.403 368.832C355.91 370.325 355.163 372.36 355.163 374.936C355.163 377.512 355.91 379.547 357.403 381.04C358.897 382.533 360.782 383.28 363.059 383.28C366.046 383.28 368.305 381.899 369.835 379.136L376.611 382.832C375.529 385.221 373.793 387.088 371.403 388.432C369.051 389.776 366.289 390.448 363.115 390.448ZM401.511 388.544C400.652 389.179 399.588 389.664 398.319 390C397.087 390.299 395.78 390.448 394.399 390.448C390.815 390.448 388.034 389.533 386.055 387.704C384.114 385.875 383.143 383.187 383.143 379.64V367.264H378.495V360.544H383.143V353.208H391.879V360.544H399.383V367.264H391.879V379.528C391.879 380.797 392.196 381.787 392.831 382.496C393.503 383.168 394.436 383.504 395.631 383.504C397.012 383.504 398.188 383.131 399.159 382.384L401.511 388.544ZM410.266 390.448C408.735 390.448 407.447 389.925 406.402 388.88C405.356 387.835 404.834 386.528 404.834 384.96C404.834 383.355 405.356 382.067 406.402 381.096C407.447 380.088 408.735 379.584 410.266 379.584C411.796 379.584 413.084 380.088 414.13 381.096C415.175 382.067 415.698 383.355 415.698 384.96C415.698 386.528 415.175 387.835 414.13 388.88C413.084 389.925 411.796 390.448 410.266 390.448ZM419.925 401.312C416.863 401.312 414.53 400.752 412.925 399.632L415.277 393.304C416.285 394.013 417.517 394.368 418.973 394.368C420.093 394.368 420.97 393.995 421.605 393.248C422.239 392.539 422.557 391.456 422.557 390V359.872H431.293V389.944C431.293 393.453 430.285 396.216 428.269 398.232C426.29 400.285 423.509 401.312 419.925 401.312ZM426.925 355.672C425.319 355.672 424.013 355.205 423.005 354.272C421.997 353.339 421.493 352.181 421.493 350.8C421.493 349.419 421.997 348.261 423.005 347.328C424.013 346.395 425.319 345.928 426.925 345.928C428.53 345.928 429.837 346.376 430.845 347.272C431.853 348.168 432.357 349.288 432.357 350.632C432.357 352.088 431.853 353.301 430.845 354.272C429.837 355.205 428.53 355.672 426.925 355.672ZM449.473 390.448C446.971 390.448 444.526 390.149 442.137 389.552C439.747 388.917 437.843 388.133 436.425 387.2L439.337 380.928C440.681 381.787 442.305 382.496 444.209 383.056C446.113 383.579 447.979 383.84 449.809 383.84C453.505 383.84 455.353 382.925 455.353 381.096C455.353 380.237 454.849 379.621 453.841 379.248C452.833 378.875 451.283 378.557 449.193 378.296C446.729 377.923 444.694 377.493 443.089 377.008C441.483 376.523 440.083 375.664 438.889 374.432C437.731 373.2 437.153 371.445 437.153 369.168C437.153 367.264 437.694 365.584 438.777 364.128C439.897 362.635 441.502 361.477 443.593 360.656C445.721 359.835 448.222 359.424 451.097 359.424C453.225 359.424 455.334 359.667 457.425 360.152C459.553 360.6 461.307 361.235 462.689 362.056L459.777 368.272C457.126 366.779 454.233 366.032 451.097 366.032C449.23 366.032 447.83 366.293 446.897 366.816C445.963 367.339 445.497 368.011 445.497 368.832C445.497 369.765 446.001 370.419 447.009 370.792C448.017 371.165 449.622 371.52 451.825 371.856C454.289 372.267 456.305 372.715 457.873 373.2C459.441 373.648 460.803 374.488 461.961 375.72C463.118 376.952 463.697 378.669 463.697 380.872C463.697 382.739 463.137 384.4 462.017 385.856C460.897 387.312 459.254 388.451 457.089 389.272C454.961 390.056 452.422 390.448 449.473 390.448Z" fill="white"/>
</svg>
