<svg width="699" height="467" viewBox="0 0 699 467" fill="none" xmlns="http://www.w3.org/2000/svg">
<rect width="699" height="467" fill="black" fill-opacity="0"/>
<path d="M422.891 224.882C435.401 223.586 444.892 212.796 444.46 199.847C444.03 186.898 433.244 176.539 420.302 176.539H419.44C406.066 176.971 395.713 188.193 396.145 201.573C396.576 208.048 399.164 213.659 403.046 217.544C388.379 246.464 365.947 267.613 332.299 285.31C309.435 297.396 285.709 301.713 261.983 298.692C242.57 296.102 227.471 287.47 217.979 273.224C204.175 252.075 202.882 229.197 214.529 206.321C222.726 189.919 235.667 177.833 243.863 171.79C242.138 166.179 239.549 156.683 238.255 149.778C175.703 195.099 182.175 256.391 201.156 285.31C215.391 306.893 244.295 320.274 276.218 320.274C284.845 320.274 293.473 319.41 302.101 317.253C357.32 306.461 399.165 273.656 422.891 224.882ZM498.817 171.36C466.03 132.944 417.715 111.794 362.496 111.794H355.594C351.712 104.025 343.515 98.8441 334.456 98.8441H333.593C320.221 99.2761 309.868 110.498 310.298 123.88C310.73 136.828 321.514 147.188 334.456 147.188H335.318C344.809 146.756 353.006 140.713 356.456 132.512H364.222C397.008 132.512 428.068 142.007 456.109 160.568C477.678 174.812 493.209 193.373 501.836 215.817C509.169 233.946 508.738 251.643 500.972 266.751C488.894 289.627 468.619 302.145 441.873 302.145C424.617 302.145 408.224 296.964 399.596 293.08C394.851 297.396 386.222 304.302 380.182 308.62C398.733 317.251 417.715 322 435.833 322C477.246 322 507.876 299.123 519.523 276.247C532.033 251.211 531.17 208.048 498.817 171.36ZM279.669 232.218C280.101 245.168 290.885 255.526 303.827 255.526H304.69C318.063 255.096 328.416 243.872 327.984 230.492C327.554 217.542 316.768 207.184 303.827 207.184H302.965C302.101 207.184 300.806 207.184 299.945 207.615C282.258 178.264 274.924 146.324 277.513 111.793C279.237 85.8944 287.866 63.449 302.965 44.8882C315.475 28.9177 339.632 21.1483 356.026 20.7177C401.753 19.8539 421.164 76.8293 422.459 99.7067C428.068 101.001 437.558 104.023 444.03 106.182C438.852 36.2577 395.713 0 354.301 0C315.475 0 279.669 28.0565 265.432 69.4932C245.589 124.742 258.531 177.833 282.688 219.702C280.532 222.723 279.237 227.471 279.669 232.22V232.218Z" fill="white"/>
<path d="M285.608 420L278.048 409.08H277.6H269.704V420H260.632V380.8H277.6C281.072 380.8 284.078 381.379 286.616 382.536C289.192 383.693 291.171 385.336 292.552 387.464C293.934 389.592 294.624 392.112 294.624 395.024C294.624 397.936 293.915 400.456 292.496 402.584C291.115 404.675 289.136 406.28 286.56 407.4L295.352 420H285.608ZM285.44 395.024C285.44 392.821 284.731 391.141 283.312 389.984C281.894 388.789 279.822 388.192 277.096 388.192H269.704V401.856H277.096C279.822 401.856 281.894 401.259 283.312 400.064C284.731 398.869 285.44 397.189 285.44 395.024ZM330.708 405.048C330.708 405.16 330.652 405.944 330.54 407.4H307.748C308.159 409.267 309.129 410.741 310.66 411.824C312.191 412.907 314.095 413.448 316.372 413.448C317.94 413.448 319.321 413.224 320.516 412.776C321.748 412.291 322.887 411.544 323.932 410.536L328.58 415.576C325.743 418.824 321.599 420.448 316.148 420.448C312.751 420.448 309.745 419.795 307.132 418.488C304.519 417.144 302.503 415.296 301.084 412.944C299.665 410.592 298.956 407.923 298.956 404.936C298.956 401.987 299.647 399.336 301.028 396.984C302.447 394.595 304.369 392.747 306.796 391.44C309.26 390.096 312.004 389.424 315.028 389.424C317.977 389.424 320.647 390.059 323.036 391.328C325.425 392.597 327.292 394.427 328.636 396.816C330.017 399.168 330.708 401.912 330.708 405.048ZM315.084 396.032C313.105 396.032 311.444 396.592 310.1 397.712C308.756 398.832 307.935 400.363 307.636 402.304H322.476C322.177 400.4 321.356 398.888 320.012 397.768C318.668 396.611 317.025 396.032 315.084 396.032ZM367.212 378.448V420H358.868V416.528C356.703 419.141 353.567 420.448 349.46 420.448C346.623 420.448 344.047 419.813 341.732 418.544C339.455 417.275 337.663 415.464 336.356 413.112C335.05 410.76 334.396 408.035 334.396 404.936C334.396 401.837 335.05 399.112 336.356 396.76C337.663 394.408 339.455 392.597 341.732 391.328C344.047 390.059 346.623 389.424 349.46 389.424C353.306 389.424 356.311 390.637 358.476 393.064V378.448H367.212ZM350.972 413.28C353.175 413.28 355.004 412.533 356.46 411.04C357.916 409.509 358.644 407.475 358.644 404.936C358.644 402.397 357.916 400.381 356.46 398.888C355.004 397.357 353.175 396.592 350.972 396.592C348.732 396.592 346.884 397.357 345.428 398.888C343.972 400.381 343.244 402.397 343.244 404.936C343.244 407.475 343.972 409.509 345.428 411.04C346.884 412.533 348.732 413.28 350.972 413.28ZM405.65 389.872V420H397.362V416.416C396.204 417.723 394.823 418.731 393.218 419.44C391.612 420.112 389.876 420.448 388.01 420.448C384.052 420.448 380.916 419.309 378.602 417.032C376.287 414.755 375.13 411.376 375.13 406.896V389.872H383.866V405.608C383.866 410.461 385.9 412.888 389.97 412.888C392.06 412.888 393.74 412.216 395.01 410.872C396.279 409.491 396.914 407.456 396.914 404.768V389.872H405.65ZM432.895 420L426.287 410.76L419.455 420H409.935L421.527 404.824L410.327 389.872H420.127L426.511 398.664L433.063 389.872H442.359L431.159 404.6L442.807 420H432.895Z" fill="white"/>
</svg>
