<svg width="699" height="443" viewBox="0 0 699 443" fill="none" xmlns="http://www.w3.org/2000/svg">
<rect width="699" height="443" fill="black" fill-opacity="0"/>
<path fill-rule="evenodd" clip-rule="evenodd" d="M203 0V142.5V285H488V0H203ZM265.486 154.613V142.999L265.7 143.07V131.385L315.575 131.171C343.006 131.171 365.592 131.242 365.592 131.456C365.877 131.599 365.877 136.8 365.877 143.212V154.613H328.828V260.062H302.536V154.613H265.486ZM449.81 141.289C444.823 136.087 439.265 132.81 431.997 131.1L432.14 130.958C427.224 129.675 415.467 129.248 410.48 130.245C395.09 133.095 384.331 143.07 381.267 157.32C380.27 161.381 380.626 171.499 381.695 175.631C383.12 180.405 386.184 186.176 389.532 189.881C395.375 196.009 401.645 199.999 416.394 206.269C429.219 211.969 433.779 214.534 436.059 217.669C437.698 220.162 438.196 221.659 438.196 224.936C438.196 228.499 437.056 231.064 434.42 233.486C428.292 239.044 415.895 239.685 406.632 234.911C403.569 233.201 398.296 228.214 395.945 224.509L394.093 222.015L386.041 226.718L375.354 232.916L372.646 234.626C372.361 235.125 377.42 242.749 380.056 245.599C386.754 252.938 397.655 258.637 409.055 260.775C414.399 261.701 425.799 261.844 430.786 260.989C446.675 258.353 457.79 250.301 462.35 238.403C466.411 227.501 465.057 212.966 459.001 203.704C453.657 195.439 444.822 189.667 424.445 180.904C413.401 176.059 409.839 173.708 407.915 169.789C407.06 167.936 406.632 166.654 406.632 164.374C406.632 156.893 412.332 152.404 420.882 152.974C426.796 153.401 430.573 155.681 434.277 160.954C435.417 162.806 436.557 164.018 436.843 163.804C444.324 159.172 456.65 150.836 456.65 150.409C456.365 149.126 452.446 144.139 449.81 141.289Z" fill="white"/>
<path d="M208.842 364.192H196.298V356.8H230.458V364.192H217.914V396H208.842V364.192ZM262.823 365.872L249.215 397.848C247.833 401.32 246.116 403.765 244.063 405.184C242.047 406.603 239.601 407.312 236.727 407.312C235.159 407.312 233.609 407.069 232.079 406.584C230.548 406.099 229.297 405.427 228.327 404.568L231.519 398.352C232.191 398.949 232.956 399.416 233.815 399.752C234.711 400.088 235.588 400.256 236.447 400.256C237.641 400.256 238.612 399.957 239.359 399.36C240.105 398.8 240.777 397.848 241.375 396.504L241.487 396.224L228.439 365.872H237.455L245.911 386.312L254.423 365.872H262.823ZM284.195 365.424C286.995 365.424 289.534 366.077 291.811 367.384C294.126 368.653 295.937 370.464 297.243 372.816C298.55 375.131 299.203 377.837 299.203 380.936C299.203 384.035 298.55 386.76 297.243 389.112C295.937 391.427 294.126 393.237 291.811 394.544C289.534 395.813 286.995 396.448 284.195 396.448C280.35 396.448 277.326 395.235 275.123 392.808V406.864H266.387V365.872H274.731V369.344C276.897 366.731 280.051 365.424 284.195 365.424ZM282.683 389.28C284.923 389.28 286.753 388.533 288.171 387.04C289.627 385.509 290.355 383.475 290.355 380.936C290.355 378.397 289.627 376.381 288.171 374.888C286.753 373.357 284.923 372.592 282.683 372.592C280.443 372.592 278.595 373.357 277.139 374.888C275.721 376.381 275.011 378.397 275.011 380.936C275.011 383.475 275.721 385.509 277.139 387.04C278.595 388.533 280.443 389.28 282.683 389.28ZM334.564 381.048C334.564 381.16 334.508 381.944 334.396 383.4H311.604C312.014 385.267 312.985 386.741 314.516 387.824C316.046 388.907 317.95 389.448 320.228 389.448C321.796 389.448 323.177 389.224 324.372 388.776C325.604 388.291 326.742 387.544 327.788 386.536L332.436 391.576C329.598 394.824 325.454 396.448 320.004 396.448C316.606 396.448 313.601 395.795 310.988 394.488C308.374 393.144 306.358 391.296 304.94 388.944C303.521 386.592 302.812 383.923 302.812 380.936C302.812 377.987 303.502 375.336 304.884 372.984C306.302 370.595 308.225 368.747 310.652 367.44C313.116 366.096 315.86 365.424 318.884 365.424C321.833 365.424 324.502 366.059 326.892 367.328C329.281 368.597 331.148 370.427 332.492 372.816C333.873 375.168 334.564 377.912 334.564 381.048ZM318.94 372.032C316.961 372.032 315.3 372.592 313.956 373.712C312.612 374.832 311.79 376.363 311.492 378.304H326.332C326.033 376.4 325.212 374.888 323.868 373.768C322.524 372.611 320.881 372.032 318.94 372.032ZM350.516 396.448C348.014 396.448 345.569 396.149 343.18 395.552C340.79 394.917 338.886 394.133 337.468 393.2L340.38 386.928C341.724 387.787 343.348 388.496 345.252 389.056C347.156 389.579 349.022 389.84 350.852 389.84C354.548 389.84 356.396 388.925 356.396 387.096C356.396 386.237 355.892 385.621 354.884 385.248C353.876 384.875 352.326 384.557 350.236 384.296C347.772 383.923 345.737 383.493 344.132 383.008C342.526 382.523 341.126 381.664 339.932 380.432C338.774 379.2 338.196 377.445 338.196 375.168C338.196 373.264 338.737 371.584 339.82 370.128C340.94 368.635 342.545 367.477 344.636 366.656C346.764 365.835 349.265 365.424 352.14 365.424C354.268 365.424 356.377 365.667 358.468 366.152C360.596 366.6 362.35 367.235 363.732 368.056L360.82 374.272C358.169 372.779 355.276 372.032 352.14 372.032C350.273 372.032 348.873 372.293 347.94 372.816C347.006 373.339 346.54 374.011 346.54 374.832C346.54 375.765 347.044 376.419 348.052 376.792C349.06 377.165 350.665 377.52 352.868 377.856C355.332 378.267 357.348 378.715 358.916 379.2C360.484 379.648 361.846 380.488 363.004 381.72C364.161 382.952 364.74 384.669 364.74 386.872C364.74 388.739 364.18 390.4 363.06 391.856C361.94 393.312 360.297 394.451 358.132 395.272C356.004 396.056 353.465 396.448 350.516 396.448ZM384.69 396.448C381.479 396.448 378.586 395.795 376.01 394.488C373.471 393.144 371.474 391.296 370.018 388.944C368.599 386.592 367.89 383.923 367.89 380.936C367.89 377.949 368.599 375.28 370.018 372.928C371.474 370.576 373.471 368.747 376.01 367.44C378.586 366.096 381.479 365.424 384.69 365.424C387.863 365.424 390.626 366.096 392.978 367.44C395.367 368.747 397.103 370.632 398.186 373.096L391.41 376.736C389.842 373.973 387.583 372.592 384.634 372.592C382.356 372.592 380.471 373.339 378.978 374.832C377.484 376.325 376.738 378.36 376.738 380.936C376.738 383.512 377.484 385.547 378.978 387.04C380.471 388.533 382.356 389.28 384.634 389.28C387.62 389.28 389.879 387.899 391.41 385.136L398.186 388.832C397.103 391.221 395.367 393.088 392.978 394.432C390.626 395.776 387.863 396.448 384.69 396.448ZM411.56 369.848C412.605 368.392 414.005 367.291 415.76 366.544C417.552 365.797 419.605 365.424 421.92 365.424V373.488C420.949 373.413 420.296 373.376 419.96 373.376C417.458 373.376 415.498 374.085 414.08 375.504C412.661 376.885 411.952 378.976 411.952 381.776V396H403.216V365.872H411.56V369.848ZM427.114 365.872H435.85V396H427.114V365.872ZM431.482 361.672C429.877 361.672 428.57 361.205 427.562 360.272C426.554 359.339 426.05 358.181 426.05 356.8C426.05 355.419 426.554 354.261 427.562 353.328C428.57 352.395 429.877 351.928 431.482 351.928C433.087 351.928 434.394 352.376 435.402 353.272C436.41 354.168 436.914 355.288 436.914 356.632C436.914 358.088 436.41 359.301 435.402 360.272C434.394 361.205 433.087 361.672 431.482 361.672ZM461.766 365.424C464.566 365.424 467.104 366.077 469.382 367.384C471.696 368.653 473.507 370.464 474.814 372.816C476.12 375.131 476.774 377.837 476.774 380.936C476.774 384.035 476.12 386.76 474.814 389.112C473.507 391.427 471.696 393.237 469.382 394.544C467.104 395.813 464.566 396.448 461.766 396.448C457.92 396.448 454.896 395.235 452.694 392.808V406.864H443.958V365.872H452.302V369.344C454.467 366.731 457.622 365.424 461.766 365.424ZM460.254 389.28C462.494 389.28 464.323 388.533 465.742 387.04C467.198 385.509 467.926 383.475 467.926 380.936C467.926 378.397 467.198 376.381 465.742 374.888C464.323 373.357 462.494 372.592 460.254 372.592C458.014 372.592 456.166 373.357 454.71 374.888C453.291 376.381 452.582 378.397 452.582 380.936C452.582 383.475 453.291 385.509 454.71 387.04C456.166 388.533 458.014 389.28 460.254 389.28ZM502.054 394.544C501.195 395.179 500.131 395.664 498.862 396C497.63 396.299 496.323 396.448 494.942 396.448C491.358 396.448 488.577 395.533 486.598 393.704C484.657 391.875 483.686 389.187 483.686 385.64V373.264H479.038V366.544H483.686V359.208H492.422V366.544H499.926V373.264H492.422V385.528C492.422 386.797 492.739 387.787 493.374 388.496C494.046 389.168 494.979 389.504 496.174 389.504C497.555 389.504 498.731 389.131 499.702 388.384L502.054 394.544Z" fill="white"/>
</svg>
