<svg width="699" height="421" viewBox="0 0 699 421" fill="none" xmlns="http://www.w3.org/2000/svg">
<rect width="699" height="421" fill="black" fill-opacity="0"/>
<path d="M372.338 0L334 66.2723L295.662 0H168L334 287L500 0H372.338Z" fill="white"/>
<path d="M334 171.198L235.26 0.5H295.374L333.567 66.5227L334 67.2708L334.433 66.5227L372.626 0.5H432.74L334 171.198Z" fill="#C4C4C4" stroke="white"/>
<path d="M303.926 334.8L286.958 374H277.998L261.086 334.8H270.886L282.814 362.8L294.91 334.8H303.926ZM335.896 343.872V374H327.608V370.416C326.45 371.723 325.069 372.731 323.464 373.44C321.858 374.112 320.122 374.448 318.256 374.448C314.298 374.448 311.162 373.309 308.848 371.032C306.533 368.755 305.376 365.376 305.376 360.896V343.872H314.112V359.608C314.112 364.461 316.146 366.888 320.216 366.888C322.306 366.888 323.986 366.216 325.256 364.872C326.525 363.491 327.16 361.456 327.16 358.768V343.872H335.896ZM373.501 359.048C373.501 359.16 373.445 359.944 373.333 361.4H350.541C350.952 363.267 351.922 364.741 353.453 365.824C354.984 366.907 356.888 367.448 359.165 367.448C360.733 367.448 362.114 367.224 363.309 366.776C364.541 366.291 365.68 365.544 366.725 364.536L371.373 369.576C368.536 372.824 364.392 374.448 358.941 374.448C355.544 374.448 352.538 373.795 349.925 372.488C347.312 371.144 345.296 369.296 343.877 366.944C342.458 364.592 341.749 361.923 341.749 358.936C341.749 355.987 342.44 353.336 343.821 350.984C345.24 348.595 347.162 346.747 349.589 345.44C352.053 344.096 354.797 343.424 357.821 343.424C360.77 343.424 363.44 344.059 365.829 345.328C368.218 346.597 370.085 348.427 371.429 350.816C372.81 353.168 373.501 355.912 373.501 359.048ZM357.877 350.032C355.898 350.032 354.237 350.592 352.893 351.712C351.549 352.832 350.728 354.363 350.429 356.304H365.269C364.97 354.4 364.149 352.888 362.805 351.768C361.461 350.611 359.818 350.032 357.877 350.032ZM382.621 374.448C381.09 374.448 379.802 373.925 378.757 372.88C377.712 371.835 377.189 370.528 377.189 368.96C377.189 367.355 377.712 366.067 378.757 365.096C379.802 364.088 381.09 363.584 382.621 363.584C384.152 363.584 385.44 364.088 386.485 365.096C387.53 366.067 388.053 367.355 388.053 368.96C388.053 370.528 387.53 371.835 386.485 372.88C385.44 373.925 384.152 374.448 382.621 374.448ZM392.28 385.312C389.219 385.312 386.886 384.752 385.28 383.632L387.632 377.304C388.64 378.013 389.872 378.368 391.328 378.368C392.448 378.368 393.326 377.995 393.96 377.248C394.595 376.539 394.912 375.456 394.912 374V343.872H403.648V373.944C403.648 377.453 402.64 380.216 400.624 382.232C398.646 384.285 395.864 385.312 392.28 385.312ZM399.28 339.672C397.675 339.672 396.368 339.205 395.36 338.272C394.352 337.339 393.848 336.181 393.848 334.8C393.848 333.419 394.352 332.261 395.36 331.328C396.368 330.395 397.675 329.928 399.28 329.928C400.886 329.928 402.192 330.376 403.2 331.272C404.208 332.168 404.712 333.288 404.712 334.632C404.712 336.088 404.208 337.301 403.2 338.272C402.192 339.205 400.886 339.672 399.28 339.672ZM421.828 374.448C419.327 374.448 416.881 374.149 414.492 373.552C412.103 372.917 410.199 372.133 408.78 371.2L411.692 364.928C413.036 365.787 414.66 366.496 416.564 367.056C418.468 367.579 420.335 367.84 422.164 367.84C425.86 367.84 427.708 366.925 427.708 365.096C427.708 364.237 427.204 363.621 426.196 363.248C425.188 362.875 423.639 362.557 421.548 362.296C419.084 361.923 417.049 361.493 415.444 361.008C413.839 360.523 412.439 359.664 411.244 358.432C410.087 357.2 409.508 355.445 409.508 353.168C409.508 351.264 410.049 349.584 411.132 348.128C412.252 346.635 413.857 345.477 415.948 344.656C418.076 343.835 420.577 343.424 423.452 343.424C425.58 343.424 427.689 343.667 429.78 344.152C431.908 344.6 433.663 345.235 435.044 346.056L432.132 352.272C429.481 350.779 426.588 350.032 423.452 350.032C421.585 350.032 420.185 350.293 419.252 350.816C418.319 351.339 417.852 352.011 417.852 352.832C417.852 353.765 418.356 354.419 419.364 354.792C420.372 355.165 421.977 355.52 424.18 355.856C426.644 356.267 428.66 356.715 430.228 357.2C431.796 357.648 433.159 358.488 434.316 359.72C435.473 360.952 436.052 362.669 436.052 364.872C436.052 366.739 435.492 368.4 434.372 369.856C433.252 371.312 431.609 372.451 429.444 373.272C427.316 374.056 424.777 374.448 421.828 374.448Z" fill="white"/>
</svg>
